# xmcd
#
# Track frame offsets:
#	150
#	13813
#	27030
#	39448
#	52115
#	67900
#	83090
#	94934
#	109025
#	125160
#	137317
#	153208
#	167044
#
# Disc length: 3197 seconds
#
# Revision: 0
# Processed by: cddbd v1.5.2PL0 Copyright (c) Steve Scherf et al.
# Submitted via: EasyCDDAExtractor 11.9.9.666
#
DISCID=9f0c7b0d
DTITLE=Various Artist - Säveliä Saimaalta
DYEAR=1900
DGENRE=
TTITLE0=Juha Watt Vainio - Vanhoja poikia viiksekkäitä
TTITLE1=Sakari Kuosmanen - Kappale kauneinta Suomea
TTITLE2=Juice Leskinen - Saimaata näkyvissä
TTITLE3=Matti Esko - Sylissä Saimaan
TTITLE4=Eino Gröhn - Ilta Saimaalla
TTITLE5=Lahjomattomat - Saimaa Rock
TTITLE6=Raimo Piipponen and Tulipunaruusut - Tyttö Mikkelistä
TTITLE7=Hiski Salomaa - Lännen Lokari
TTITLE8=Esa Pakarinen - Lentävä kalakukko
TTITLE9=Luonteri Surf - Sukellan Saimaaseen
TTITLE10=Annikki Tähti - Balladi Olavinlinnasta
TTITLE11=Kippari-Kvartetti - Saimaa-Valssi
TTITLE12=Juice Leskinen - Bluesia Pieksämäen asemalla
EXTD=
EXTT0=
EXTT1=
EXTT2=
EXTT3=
EXTT4=
EXTT5=
EXTT6=
EXTT7=
EXTT8=
EXTT9=
EXTT10=
EXTT11=
EXTT12=
PLAYORDER=
